<svg width="20" height="24" viewBox="0 0 20 24" fill="none" xmlns="http://www.w3.org/2000/svg">
<path d="M16.0444 22.5348C14.8195 23.7221 13.4822 23.5346 12.1948 22.9722C10.8325 22.3973 9.58267 22.3723 8.14535 22.9722C6.34558 23.7471 5.3957 23.5222 4.32083 22.5348C-1.7784 16.2481 -0.87851 6.67428 6.04562 6.32432C7.7329 6.41181 8.90775 7.2492 9.89513 7.32419C11.3699 7.02423 12.7823 6.16184 14.3571 6.27433C16.2443 6.42431 17.6691 7.17421 18.6065 8.52404C14.707 10.8612 15.6319 15.9981 19.2065 17.4354C18.494 19.3102 17.5692 21.1724 16.0319 22.5473L16.0444 22.5348ZM9.77015 6.24933C9.58267 3.46218 11.8449 1.16247 14.4446 0.9375C14.807 4.16209 11.5199 6.56179 9.77015 6.24933Z" fill="black"/>
</svg>
