<svg width="20" height="22" viewBox="0 0 20 22" fill="none" xmlns="http://www.w3.org/2000/svg">
<path d="M19.2951 6.95714L19.2952 6.95723C19.4325 7.09388 19.5413 7.2564 19.6153 7.43538C19.6893 7.61435 19.7272 7.80624 19.7266 7.99993V8V18.1836C19.7261 18.6204 19.6371 19.0527 19.465 19.4542C19.2929 19.8557 19.0412 20.2182 18.7251 20.5198L18.7249 20.52C18.0966 21.1335 17.2532 21.4768 16.375 21.4766H3.625C1.80982 21.4766 0.273438 19.9402 0.273438 18.125V8C0.273438 7.60839 0.429003 7.23282 0.705913 6.95591C0.982822 6.679 1.35839 6.52344 1.75 6.52344H4.75H4.77344V6.5V5.75C4.77344 4.36383 5.32409 3.03443 6.30426 2.05426C7.28443 1.07409 8.61383 0.523438 10 0.523438C11.3862 0.523438 12.7156 1.07409 13.6957 2.05426C14.6759 3.03443 15.2266 4.36383 15.2266 5.75V6.5V6.52344H15.25H18.25H18.2501C18.4443 6.52301 18.6366 6.56112 18.816 6.63557C18.9954 6.71002 19.1582 6.81932 19.2951 6.95714ZM13.75 6.52344H13.7734V6.5V5.75C13.7734 4.74922 13.3759 3.78943 12.6682 3.08178C11.9606 2.37412 11.0008 1.97656 10 1.97656C8.99922 1.97656 8.03943 2.37412 7.33178 3.08178C6.62412 3.78943 6.22656 4.74922 6.22656 5.75V6.5V6.52344H6.25H13.75ZM13.7289 13.9789C14.7178 12.9899 15.2734 11.6486 15.2734 10.25V9.5C15.2734 9.29487 15.192 9.09814 15.0469 8.9531C14.9019 8.80805 14.7051 8.72656 14.5 8.72656C14.2949 8.72656 14.0981 8.80805 13.9531 8.9531C13.808 9.09814 13.7266 9.29487 13.7266 9.5V10.25C13.7266 11.2383 13.3339 12.1862 12.6351 12.8851C11.9362 13.5839 10.9883 13.9766 10 13.9766C9.01165 13.9766 8.06379 13.5839 7.36492 12.8851C6.66606 12.1862 6.27344 11.2383 6.27344 10.25V9.5C6.27344 9.29487 6.19195 9.09814 6.0469 8.9531C5.90185 8.80805 5.70513 8.72656 5.5 8.72656C5.29487 8.72656 5.09815 8.80805 4.9531 8.9531C4.80805 9.09814 4.72656 9.29487 4.72656 9.5V10.25C4.72656 11.6486 5.28216 12.9899 6.27112 13.9789C7.26008 14.9678 8.6014 15.5234 10 15.5234C11.3986 15.5234 12.7399 14.9678 13.7289 13.9789Z" fill="#232321" stroke="#232321" stroke-width="0.046875"/>
</svg>
